<svg xmlns="http://www.w3.org/2000/svg" width="16" height="17" fill="none" viewBox="0 0 16 17">
    <g clip-path="url(#clip0)">
        <path fill="#155896" d="M12.737 3.06C11.766 1.384 10.04.36 8.123.321h-.246C5.959.361 4.234 1.384 3.263 3.06c-.992 1.713-1.02 3.77-.072 5.504l3.967 7.262.005.01c.175.303.488.484.837.484.35 0 .662-.181.837-.484l.005-.01 3.968-7.262c.947-1.734.92-3.791-.073-5.504zM8 7.57c-1.24 0-2.25-1.01-2.25-2.25S6.76 3.07 8 3.07s2.25 1.01 2.25 2.25S9.24 7.57 8 7.57z"/>
    </g>
    <defs>
        <clipPath id="clip0">
            <path fill="#fff" d="M0 0H16V16H0z" transform="translate(0 .32)"/>
        </clipPath>
    </defs>
</svg>
