<svg xmlns="http://www.w3.org/2000/svg" width="267" height="24" fill="none" viewBox="0 0 267 24">
    <path fill="#D32D2D" d="M.008.49C.008.19.19.007.489.007h7.193C10.502.008 12 1.506 12 4.326v7.315c0 2.79-1.498 4.318-4.318 4.318h-3.6v7.56c0 .298-.153.481-.482.481H.482C.183 24 0 23.817 0 23.52V.489h.008zM6.726 12c.81 0 1.2-.45 1.2-1.2V5.16c0-.78-.39-1.2-1.2-1.2H4.09V12h2.637zM27.715 3.486c0 .298-.123.512-.482.512h-7.498v6h5.725c.298 0 .481.183.481.512v2.965c0 .329-.183.512-.481.512h-5.725v6.054h7.498c.36 0 .482.153.482.481v2.997c0 .298-.123.481-.482.481H16.196c-.267 0-.45-.183-.45-.481V.489c0-.298.175-.481.45-.481h11.037c.36 0 .482.183.482.481v2.997zM43.78 11.64c0 2.011-.748 3.326-2.185 3.96l2.071 7.857c.092.36-.091.543-.42.543h-3.119c-.298 0-.45-.153-.512-.42l-2.01-7.62h-2.071v7.559c0 .298-.176.481-.482.481h-3.118c-.298 0-.482-.183-.482-.481V.489c0-.298.184-.481.482-.481h7.528c2.82 0 4.319 1.498 4.319 4.318v7.315zm-5.273.36c.78 0 1.2-.42 1.2-1.2V5.16c0-.78-.42-1.2-1.2-1.2h-2.966V12h2.966zM59.526 3.486c0 .298-.183.481-.482.481h-7.436v6.03h5.633c.298 0 .481.184.481.482v2.996c0 .329-.183.482-.481.482h-5.633v9.562c0 .298-.184.481-.482.481h-3.118c-.33 0-.482-.183-.482-.481V.489c0-.298.153-.481.482-.481h11.036c.299 0 .482.183.482.481v2.997zM62.522 4.326c0-2.82 1.498-4.318 4.319-4.318h3.363c2.82 0 4.318 1.498 4.318 4.318v15.356c0 2.82-1.498 4.318-4.318 4.318H66.84c-2.82 0-4.319-1.498-4.319-4.318V4.326zm6.925 15.799c.78 0 1.2-.39 1.2-1.2V5.068c0-.78-.42-1.2-1.2-1.2h-1.735c-.78 0-1.2.42-1.2 1.2v13.857c0 .81.42 1.2 1.2 1.2h1.735zM91.085 11.64c0 2.011-.749 3.326-2.186 3.96l2.072 7.857c.091.36-.092.543-.42.543h-3.12c-.297 0-.45-.153-.511-.42l-2.01-7.62h-2.072v7.559c0 .298-.176.481-.481.481h-3.119c-.298 0-.481-.183-.481-.481V.489c0-.298.183-.481.481-.481h7.529c2.82 0 4.318 1.498 4.318 4.318v7.315zm-5.274.36c.78 0 1.2-.42 1.2-1.2V5.16c0-.78-.42-1.2-1.2-1.2h-2.973V12h2.973zM111.699.008c.39 0 .604.206.604.596v22.792c0 .39-.206.596-.604.596h-2.79c-.389 0-.603-.206-.603-.596V9.906h-.207l-2.965 13.551c-.092.36-.298.543-.665.543h-1.468c-.359 0-.573-.183-.657-.543L99.371 9.906h-.207v13.49c0 .39-.206.596-.603.596H95.8c-.39 0-.604-.206-.604-.596V.604c0-.39.207-.596.604-.596h3.96c.359 0 .573.183.657.542l3.325 14.936L107.075.55c.092-.359.298-.542.657-.542h3.967zM146.69.008c.298 0 .482.183.482.481v23.03c0 .298-.184.481-.482.481h-2.965c-.268 0-.451-.122-.543-.39l-4.586-12.802h-.153v12.71c0 .299-.153.482-.481.482h-3.119c-.298 0-.481-.183-.481-.481V.489c0-.298.183-.481.481-.481h2.966c.267 0 .451.122.542.39l4.556 12.741h.176V.489c0-.298.153-.481.481-.481h3.126zM163.444 7.56c0 .297-.183.48-.481.48h-2.996c-.329 0-.482-.183-.482-.48v-2.4c0-.78-.42-1.2-1.2-1.2h-1.559c-.81 0-1.2.42-1.2 1.2v13.673c0 .81.42 1.2 1.2 1.2h1.559c.78 0 1.2-.39 1.2-1.2v-2.4c0-.298.145-.481.482-.481h2.996c.298 0 .481.183.481.481v3.24c0 2.821-1.528 4.32-4.318 4.32h-3.355c-2.821 0-4.349-1.499-4.349-4.32V4.319c0-2.82 1.528-4.318 4.349-4.318h3.355c2.79 0 4.318 1.498 4.318 4.318V7.56zM179.151 3.486c0 .298-.122.512-.481.512h-7.498v6h5.725c.298 0 .481.183.481.512v2.965c0 .329-.183.512-.481.512h-5.725v6.054h7.498c.359 0 .481.153.481.481v2.997c0 .298-.122.481-.481.481h-11.037c-.268 0-.451-.183-.451-.481V.489c0-.298.176-.481.451-.481h11.037c.359 0 .481.183.481.481v2.997zM116.117 23.985l8.27-8.27h-2.973l1.918-10.464 1.781 9.73 3.264-3.264L125.939.42c-.061-.298-.237-.42-.512-.42h-4.166c-.267 0-.451.122-.512.42l-4.976 23.06c-.076.314.054.49.344.505zM129.409 16.479l-3.294 3.294.726 3.799c.061.268.206.42.481.42h3.18c.359 0 .481-.183.42-.512l-1.513-7.001z"/>
    <path fill="#153760" d="M191.144.49c0-.299.176-.482.481-.482h7.2c2.821 0 4.319 1.498 4.319 4.318v7.315c0 2.79-1.498 4.318-4.319 4.318h-3.6v7.56c0 .298-.152.481-.481.481h-3.119c-.298 0-.481-.183-.481-.481V.489zM197.862 12c.81 0 1.2-.45 1.2-1.2V5.16c0-.78-.39-1.2-1.2-1.2h-2.637V12h2.637zM210.963 20.033h7.139c.328 0 .481.184.481.482v2.996c0 .329-.153.481-.481.481h-10.739c-.298 0-.482-.152-.482-.481V.48c0-.298.176-.481.482-.481h3.118c.329 0 .482.183.482.482v19.551zM251.044 7.56c0 .297-.175.48-.481.48h-2.996c-.329 0-.482-.183-.482-.48v-2.4c0-.78-.42-1.2-1.2-1.2h-1.559c-.81 0-1.2.42-1.2 1.2v13.673c0 .81.42 1.2 1.2 1.2h1.559c.78 0 1.2-.39 1.2-1.2v-2.4c0-.298.153-.481.482-.481h2.996c.298 0 .481.183.481.481v3.24c0 2.821-1.528 4.32-4.318 4.32h-3.355c-2.821 0-4.349-1.499-4.349-4.32V4.319c0-2.82 1.528-4.318 4.349-4.318h3.355c2.79 0 4.318 1.498 4.318 4.318V7.56zM266.759 3.486c0 .298-.122.512-.481.512h-7.499v6h5.725c.298 0 .482.183.482.512v2.965c0 .329-.176.512-.482.512h-5.725v6.054h7.499c.359 0 .481.153.481.481v2.997c0 .298-.122.481-.481.481h-11.037c-.268 0-.451-.183-.451-.481V.489c0-.298.183-.481.451-.481h11.037c.359 0 .481.183.481.481v2.997zM221.144 23.985l8.27-8.27h-2.973l1.918-10.464 1.781 9.73 3.264-3.264L230.965.42c-.061-.298-.236-.42-.512-.42h-4.165c-.268 0-.451.122-.512.42L220.8 23.48c-.077.314.053.49.344.505zM234.436 16.479l-3.295 3.294.726 3.799c.062.268.207.42.482.42h3.18c.359 0 .481-.183.42-.512l-1.513-7.001z"/>
</svg>
